PathFileType        4      (X/Y/Z)      C:\Users\pc\Desktop\IMUTRC\Sujet_04\Sujet_04_velo_60.trc         
DataRate	CameraRate	NumFrames	NumMarkers	Units	OrigDataRate	OrigDataStartFrame	OrigNumFrames
60.0	60.0	4	64	mm	60.0	315	1257
Frame#	Time	pHipOrigin			pRightASI			pLeftASI			pRightCSI			pLeftCSI			pRightIschialTub			pLeftIschialTub			pSacrum			pL5SpinalProcess			pL3SpinalProcess			pT12SpinalProcess			pIJ			pT4SpinalProcess			pT8SpinalProcess			pPX			pC7SpinalProcess			pTopOfHead			pRightAuricularis			pLeftAuricularis			pBackOfHead			pRightAcromion			pLeftAcromion			pRightArmLatEpicondyle			pRightArmMedEpicondyle			pLeftArmLatEpicondyle			pLeftArmMedEpicondyle			pRightUlnarStyloid			pRightRadialStyloid			pRightOlecranon			pLeftUlnarStyloid			pLeftRadialStyloid			pLeftOlecranon			pRightTopOfHand			pRightPinky			pRightBallHand			pLeftTopOfHand			pLeftPinky			pLeftBallHand			pRightGreaterTrochanter			pRightKneeLatEpicondyle			pRightKneeMedEpicondyle			pRightPatella			pLeftGreaterTrochanter			pLeftKneeLatEpicondyle			pLeftKneeMedEpicondyle			pLeftPatella			pRightTibialTub			pRightLatMalleolus			pRightMedMalleolus			pLeftTibialTub			pLeftLatMalleolus			pLeftMedMalleolus			pRightHeelFoot			pRightFirstMetatarsal			pRightFifthMetatarsal			pRightPivotFoot			pRightHeelCenter			pRightToe			pLeftHeelFoot			pLeftFirstMetatarsal			pLeftFifthMetatarsal			pLeftPivotFoot			pLeftHeelCenter			pLeftToe			
		X1	Y1	Z1	X2	Y2	Z2	X3	Y3	Z3	X4	Y4	Z4	X5	Y5	Z5	X6	Y6	Z6	X7	Y7	Z7	X8	Y8	Z8	X9	Y9	Z9	X10	Y10	Z10	X11	Y11	Z11	X12	Y12	Z12	X13	Y13	Z13	X14	Y14	Z14	X15	Y15	Z15	X16	Y16	Z16	X17	Y17	Z17	X18	Y18	Z18	X19	Y19	Z19	X20	Y20	Z20	X21	Y21	Z21	X22	Y22	Z22	X23	Y23	Z23	X24	Y24	Z24	X25	Y25	Z25	X26	Y26	Z26	X27	Y27	Z27	X28	Y28	Z28	X29	Y29	Z29	X30	Y30	Z30	X31	Y31	Z31	X32	Y32	Z32	X33	Y33	Z33	X34	Y34	Z34	X35	Y35	Z35	X36	Y36	Z36	X37	Y37	Z37	X38	Y38	Z38	X39	Y39	Z39	X40	Y40	Z40	X41	Y41	Z41	X42	Y42	Z42	X43	Y43	Z43	X44	Y44	Z44	X45	Y45	Z45	X46	Y46	Z46	X47	Y47	Z47	X48	Y48	Z48	X49	Y49	Z49	X50	Y50	Z50	X51	Y51	Z51	X52	Y52	Z52	X53	Y53	Z53	X54	Y54	Z54	X55	Y55	Z55	X56	Y56	Z56	X57	Y57	Z57	X58	Y58	Z58	X59	Y59	Z59	X60	Y60	Z60	X61	Y61	Z61	X62	Y62	Z62	X63	Y63	Z63	X64	Y64	Z64	
315	5.233	4.919999564491574E-14	1250.01928	5.863427156544783E-14	81.80257232074804	1329.25429	159.07802891379944	84.55283348921031	1366.50444	-132.45758081296316	41.872914687277074	1408.94566	142.02024469311317	44.16719184169855	1439.46454	-96.63387592643218	-66.91636519017464	1188.29698	52.12830768266778	-65.78755953187634	1203.5279	-67.22059317046238	-69.31735723969749	1280.25294	3.207892690778891	-15.014753456478124	1383.67488	15.65199981805771	50.40804978335278	1486.24115	29.19046064710591	115.51890094019775	1576.771	41.2034733422535	381.59871430576334	1595.25347	62.78183335698728	270.4542114237082	1706.31939	62.28983753868917	192.98606146088304	1655.03625	52.677897755433506	278.8543464226501	1520.86725	49.58182459706643	320.2944055710633	1736.83827	68.35089676236072	568.5114229031112	1789.03412	99.2584726325158	474.7904309927726	1744.65339	153.6981108834011	490.3910001754715	1757.20321	17.961361522833215	460.587468103397	1800.15783	87.87278979815974	300.7549570927987	1681.44792	255.1257851740437	334.23580940947613	1711.5675	-121.54564638947657	311.7991423664193	1359.48795	287.63430967379816	272.5788129199903	1348.99174	234.23741011863973	385.0280043044264	1394.05701	-101.83689895535792	346.7813187373632	1389.43639	-46.95737339817589	401.77582059154327	1125.94718	210.2732577711502	447.8917160306356	1143.40284	231.5974171575715	270.51461201377396	1346.88109	252.2776464137462	432.6056478504887	1159.94579	16.63094066633525	482.83664456989686	1177.57258	23.778956340549684	341.99413220685375	1384.0742	-80.17369138271636	589.1268438266218	1021.15617	319.95499276331554	501.6555734694154	1027.7163	261.76981615741533	456.4576504523019	1090.00906	222.54807730020002	643.4627670472593	1045.97059	34.43069952967369	539.1208134529717	1058.80564	39.02832434443775	483.66811990068663	1125.03447	40.65535049200537	13.868675709656173	1212.48391	176.09283417270507	218.89194378545258	828.68754	170.78836854663874	223.04040743415996	824.69442	86.80910127241295	261.0465626176439	851.61949	126.77832842530438	25.78201173992585	1252.30107	-176.67291880374225	426.20478009871476	1082.02281	-180.02568007038053	433.486405477346	1080.82487	-96.18016431058408	445.4318896317369	1125.94718	-135.990216429731	270.4519847215745	783.39409	132.66254473704836	118.18916814754934	393.37986	139.3436870072269	128.6526236495779	393.77918	73.89480867965	450.3326531042103	1027.94448	-142.4853748801363	139.60582405439368	748.42573	-167.92934809170512	146.36587776128272	742.77831	-102.18833046699477	57.62768045506035	320.02045	94.76924175956276	229.61721867666222	271.58955	72.72685986353926	218.9972654529226	267.59642	156.62582280881102	247.32289576081806	262.74763	116.10282903564769	98.79383642597254	309.9806	99.54504169693779	333.5338864694927	236.22186999999997	125.75083760754022	61.86647856688115	688.41476	-130.47429137503116	215.24093748413225	605.75707	-85.0680770514955	214.45038779635024	600.10965	-169.51993234131223	235.83182411464117	591.32478	-125.57942998579438	100.17104820514426	669.64707	-129.5525207800063	314.7941888288093	546.71587	-123.3275497643812	
316	5.25	4.919999564491574E-14	1250.01928	5.863427156544783E-14	81.37262049839424	1329.19725	159.364340897577	84.97727688876225	1366.50444	-132.21799544242316	41.537385017341606	1408.94566	142.15285359776513	44.51829194241691	1439.46454	-96.48168213853151	-67.09970107220943	1188.29698	51.909816486601386	-65.60573170849813	1203.58494	-67.4476383158532	-69.33995947282769	1280.30999	3.003463866838807	-14.971050620998186	1383.67488	15.615328784925094	50.44471438860929	1486.24115	29.23415582214141	115.6359317536224	1576.71396	41.25420674751243	381.6720499441525	1595.13938	62.86923136750269	270.54160943422363	1706.26234	62.21650190030003	193.11013050453113	1654.97921	52.648264952524315	278.8769550836564	1520.75316	49.786261081450974	320.46216978974684	1736.72418	68.284599354195	568.6706408329148	1788.92003	98.82700509106098	475.0526173638745	1744.5393	153.4781103961098	490.41912491972414	1757.14617	17.63989422502408	460.7692946942069	1799.98669	87.64575874108942	301.04678392725424	1681.73315	255.02984730252433	334.2428476396995	1711.28227	-121.6260125976447	311.92472712916833	1359.65909	288.0502067844701	272.74106228799593	1349.10583	234.69700240434722	385.022481793304	1393.71474	-101.31100283360865	346.8124749198179	1389.26526	-46.3877808688228	401.73363347516437	1125.94718	210.75545871786397	447.8424983444777	1143.3458	232.15997788457724	270.6401826882025	1347.05222	252.69354229184978	432.8271628243127	1159.77466	17.338671039338834	483.0285267408116	1177.40145	24.362617669905177	342.02528196143226	1383.78897	-79.60410651380771	588.9535558642475	1021.04208	320.5472003815511	501.5259819146449	1027.65926	262.32534508207374	456.3717681608875	1089.95201	223.06694285217026	643.6983379653335	1045.79946	34.97768859332825	539.3126891960104	1058.69155	39.611978013348846	483.8966731047341	1124.86333	41.28271465684077	12.532087201481119	1211.91346	176.0973672416876	212.4641493854558	825.436	170.67139961242813	217.2188753640806	821.78514	86.70469307954816	255.27023501382496	847.96863	127.08277788031982	26.3008772918961	1252.4722	-176.5870365123278	429.68465036991364	1089.32452	-179.07338218099622	436.922572913065	1088.58294	-95.19119538806717	448.1588250636719	1133.70525	-135.22526121440288	263.34459112070294	779.22984	132.44563113929706	102.40116130519016	392.63828	133.7513811579175	113.46384213948102	393.49395	68.395415691534	455.6765237244345	1036.04482	-141.086557635031	154.1144813192229	746.48621	-164.8379283989558	160.9915581790922	741.52333	-99.04617094111046	41.34189580732846	320.30568	88.84993844087738	212.86784137907762	269.82117	67.94123960863426	201.6923515702351	265.99917	151.71061742701164	230.20131776016535	260.80811	111.40611484991473	82.36289498799505	309.80946	93.89648635912316	315.997920649393	233.25554999999997	121.62523043769303	78.43652677445237	684.07937	-126.87858835152294	234.6956386552298	606.95501	-81.58442912344728	233.86139255984398	600.90828	-165.99960571968697	255.64465595623614	593.03612	-122.02394805013752	117.39106157811277	666.68075	-125.98092804828488	336.1113746298312	551.16535	-119.84291239419314	
317	5.267	4.919999564491574E-14	1250.01928	5.863427156544783E-14	80.98635742319983	1329.08316	159.61398061565362	85.51875110173881	1366.4474	-131.92767666662417	41.3188938212752	1408.83157	142.3361894797999	45.0301333524843	1439.46454	-96.31543240638062	-67.32674621760027	1188.35402	51.72798866322319	-65.46760029272376	1203.69903	-67.63800476766698	-69.28220192566587	1280.36703	2.806065612677706	-14.890684412830064	1383.73193	15.62236701514851	50.59841623516655	1486.24115	29.328592062880265	115.7896412606241	1576.65691	41.34863656037519	381.8483616842844	1594.9112	63.168090004305554	270.77567872151735	1706.09121	62.31796228294178	193.34419979182485	1654.86512	52.749725335166076	279.0165881302113	1520.58203	50.04142331064995	320.69623907704056	1736.55305	68.38605973683673	568.9695058975938	1788.80594	98.65070101137354	475.46148267219917	1744.36817	153.43289950197328	490.57985856862877	1756.97503	17.65395659715037	461.01038812340346	1799.81556	87.66685168299477	301.4415868634525	1681.84724	255.1453700572924	334.47691049911714	1710.99705	-121.52455987544738	312.26879666010774	1359.65909	288.2827603526628	273.0414289834554	1349.04878	234.96622700567252	385.22139576656616	1393.31543	-100.80771537286574	347.048045837892	1388.92299	-45.84079180516821	402.01994545894195	1125.89014	211.1854105402178	448.1358408980343	1143.3458	232.50956992663907	270.9842522191419	1346.99518	252.9260958600425	433.26014608486855	1159.48943	17.943418882723535	483.5122293183058	1177.17327	24.850333467296906	342.2171641323471	1383.4467	-79.02044518445219	589.239867848025	1020.98504	320.9771522039049	501.8122926658541	1027.60222	262.7553109927481	456.7017753197006	1089.89497	223.46023006926754	644.1890852009271	1045.62832	35.385045842996306	539.8330628066371	1058.46337	40.14339664622051	484.3733515403254	1124.63515	41.850797894968935	11.319553648633601	1211.40006	176.0722662751926	208.3810405620971	823.43943	170.5976072367364	213.86609148641122	820.13085	86.61382098184859	251.7512090644491	845.85798	127.50374076481148	26.863444446777976	1252.64334	-176.5378111657255	432.2227274086914	1094.40149	-178.00102203998523	439.29991630293813	1093.94514	-94.13289761918247	450.0539751672758	1139.12449	-134.20915698977322	258.34781380917565	776.14943	132.17043371742272	87.2475351091249	394.00736	127.85016109170033	98.74871405464955	395.31938	62.573053774828374	460.1449061808478	1041.92042	-139.39992034749147	168.55682585499756	742.20786	-161.9142600691379	175.30984133166322	738.0436	-96.09287623625943	25.639771256383714	322.7586	82.7387670395977	196.66544671727146	270.22048	62.920040775210666	184.92738975354706	266.68371	146.64019324698572	213.66339342842372	261.09334	106.51752492114308	66.47894384624043	311.74898	88.01234601491379	299.0456161586487	232.57100999999997	117.30774109693107	95.0643401896298	677.46219	-123.48029001005192	254.07700295536992	606.21343	-78.18816511759398	253.32312430072056	599.76739	-162.5963175719308	275.43487913682475	592.86498	-118.6729025988652	134.58847395051941	661.48969	-122.61377822882407	357.3115283848601	553.96054	-116.40899434094347	
318	5.283	4.919999564491574E-14	1250.01928	5.863427156544783E-14	80.60010077588153	1328.91202	159.86362799417466	86.10391406187479	1366.33331	-131.67403015652621	41.06373159207619	1408.71748	142.4758225263548	45.57863170736376	1439.4075	-96.10548107131814	-67.54675313276769	1188.46811	51.46579463167685	-65.3294753048255	1203.75608	-67.8283788799252	-69.30480415879609	1280.48112	2.601636788737615	-14.72995719180158	1383.73193	15.636421726830388	50.79581448932766	1486.18411	29.38634961004209	116.06037515317433	1576.54282	41.49379211805245	382.098001402361	1594.62598	63.55435307949995	271.1267723943596	1705.86303	62.470148410398025	193.65159828963158	1654.69399	52.93857606787883	279.22253267325243	1520.35385	50.464350991100886	321.0403086079799	1736.32487	68.61861330502941	569.2909667675267	1788.69185	98.6788180951817	475.892950213654	1744.19703	153.59211743177687	490.81392785592243	1756.8039	17.75541697979213	461.28112201595377	1799.64443	87.81200724067196	301.8293515694274	1681.79019	255.34125902022856	334.8646816329681	1710.65478	-121.32866325206676	312.7369352346952	1359.545	288.4856811179463	273.5532703935227	1348.99174	235.1324767378234	385.53734055325293	1392.91611	-100.2536945068639	347.40769346005874	1388.58072	-45.32344197229898	402.5684438138213	1125.83309	211.3953618752803	448.68433925291373	1143.28875	232.71952126170152	271.45239079372936	1346.88109	253.129016625326	433.90458873914343	1159.20421	18.445204712686007	484.163703774928	1176.94509	25.271745428646796	342.5768040940693	1382.99035	-78.50308892370684	589.8250372360371	1021.04208	321.2308063744473	502.3974632864346	1027.60222	263.00895107497	457.2869447077126	1089.89497	223.71388423981	644.9209194378416	1045.45719	35.813488374125086	540.5212082963922	1058.23519	40.608511443050304	485.0614906022042	1124.34993	42.31590503135436	10.187393964398666	1210.9437	176.0541971110449	206.3874615140535	822.58377	170.70663212656268	212.63950964975794	819.61744	86.74945489682646	250.16096638573165	845.1164	128.0934432218061	27.42601283422816	1252.75742	-176.48859990744367	433.86270762265184	1097.36781	-176.84527834092455	440.8158339011266	1097.08259	-92.9475134567682	451.2921347310111	1142.26195	-133.0885609442998	255.20649821823812	774.20991	131.97657909010434	72.6408992092825	397.54412	121.71335601908841	84.5805839264854	399.31251	56.515100423851905	463.71519181244366	1045.68537	-137.6298995019024	182.88917780757097	735.81886	-159.121691352747	189.39406162481657	732.45323	-93.24103425360573	10.440934166181918	327.20808	76.42868166505592	181.00301178190915	272.61635	57.74361671568434	168.7390574638672	269.4789	141.4582607646575	197.5850678102656	263.37512	101.46669328481025	51.13495119836138	315.79915	81.97299453292226	282.6332765896562	233.88303999999997	112.83504827883132	111.72028477693598	668.67732	-120.40345130594564	273.3116959787318	603.58938	-74.96669713277161	272.7552155782435	596.85811	-159.3170920399466	295.1517731069003	590.92547	-115.40924749766386	151.80697283695525	654.18798	-119.48772949900433	378.48204290910365	555.15847	-113.09915299178624	
